<svg version="1.1" id="Layer_1" xmlns="http://www.w3.org/2000/svg" xmlns:xlink="http://www.w3.org/1999/xlink" x="0px" y="0px"
	 viewBox="0 0 76.2 118.7" style="enable-background:new 0 0 76.2 118.7;" xml:space="preserve">
<g id="_x36_9-bathrobes">
	<path style="fill:#595858;" d="M56.2,59.3c-19.2,1.7-33.8,0.7-38.4-1c-0.1,0.2-0.6,2-0.6,2c-7.5,11.7-2,55.5-2,55.5c20.1,6.4,43.4,0.3,43.4,0.3
		s1.7-17.8,1.7-29.2c0-9.9-3.6-25.2-3.6-25.2C56.3,60.8,56.2,60.1,56.2,59.3z M68.4,14.3c-5.4-6-14.7-5.8-14.7-5.8
		C53.4,1,41.3,0,36.6,0c-4.7,0-11.7,2-13.2,3.8c-1.2,1.4-2.2,4-2.3,4.1l-2.5,0.6C4.8,10.6,3.8,23,3.8,23S1.6,44.5,0.7,51.9
		c-0.9,7.4-0.6,25-0.6,25c4.8,1.2,10.2,0,10.2,0s0.3,1.4,0.4-2.8c0.1-4.2,1-10.8,1-10.8c2.4-11.5,1.7-22.7,1.7-22.7
		c0.9,2.7,4,12.4,4,12.4c1.2,1.2,1.4,2.2,1.3,2.9c0,0,30,2.5,38.6-0.3l0.4-2.1c-0.1-5,4.7-12,4.7-12c-0.6,5,1.8,21.7,2.3,24.4
		c0.5,2.7,1,11.1,1,11.1c4.1,1.5,10.2,0,10.2,0l0.3-5.5C76.2,71.4,73.8,20.2,68.4,14.3z M49.9,11.3c0,0-0.2,6.4-7.4,16.1
		c-4.2,5.7-10,16.6-12.8,24c-0.5,1.4-1,4.1-2.1,4.1h0c-0.9,0-0.8-1.9-0.8-2.8c0-11.7,3.6-21.8,5.4-25.6l4.6-8.7
		c0.8-1.4,7-10.6,4.6-11.5c-5-1.8-9.8,0-9.8,0c-1.1,0.5-0.5,4,1.7,6.3c1.1,1.2,0.1,2.9,0.1,2.9L31,20.6c0,0-1,1.9-2.4,0.1
		c-3.7-5-4.7-10.4-4.6-9.9c0,0-1.6-6.2,6.7-8.3c0,0,13.3-2.8,17.9,3.1C48.7,5.7,50.3,7.3,49.9,11.3z"/>
</g>
</svg>