<svg version="1.1" id="Layer_1" xmlns="http://www.w3.org/2000/svg" xmlns:xlink="http://www.w3.org/1999/xlink" x="0px" y="0px"
   viewBox="0 0 118.9 84.2" style="enable-background:new 0 0 118.9 84.2;" xml:space="preserve">
<g id="_x35_8-bathtub">
  <path d="M5,49.5c0,9.2,5,17.2,12.5,21.5l-6.3,6.3c-1.6,1.6-1.6,4.1,0,5.7c0.8,0.8,1.8,1.2,2.9,1.2c1,0,2.1-0.4,2.8-1.2l9.1-9.1
    c1.3,0.2,2.6,0.3,3.9,0.3h59.5c1.3,0,2.6-0.1,3.9-0.3l9.1,9.1c0.8,0.8,1.8,1.2,2.8,1.2c1,0,2.1-0.4,2.8-1.2c1.6-1.6,1.6-4.1,0-5.7
    l-6.3-6.3c7.4-4.3,12.5-12.3,12.5-21.5v-9.9H5V49.5z M113.9,27.2H17.3V14.9c0-5.8,4.1-8.1,7.4-8.1c4.4,0,8,3.6,8,8.1h6.8
    C39.6,6.7,33,0,24.8,0C16.6,0,9.9,6.7,9.9,14.9v12.4H5c-2.7,0-5,2.2-5,5v2.5h118.9v-2.5C118.9,29.5,116.7,27.2,113.9,27.2z"/>
</g>
</svg>